<?xml version="1.0" encoding="utf-8"?>
<!-- Generator: Adobe Illustrator 23.0.2, SVG Export Plug-In . SVG Version: 6.00 Build 0)  -->
<svg version="1.1" id="Capa_1" xmlns="http://www.w3.org/2000/svg" xmlns:xlink="http://www.w3.org/1999/xlink" x="0px" y="0px"
	 viewBox="0 0 180 180" style="enable-background:new 0 0 180 180;" xml:space="preserve">
<style type="text/css">
	.st0{fill:#ED9CC3;}
	.st1{fill:#DFDBDB;}
</style>
<g>
	<path class="st0" d="M90,0.4c49.7,0,90,40.3,90,90s-40.3,90-90,90s-90-40.3-90-90S40.3,0.4,90,0.4L90,0.4z"/>
	<path class="st1" d="M90,33.8c-15.4,0-17.3,0.1-23.4,0.3c-6,0.3-10.2,1.2-13.8,2.6c-3.7,1.5-6.9,3.4-10,6.5s-5.1,6.3-6.5,10
		c-1.4,3.6-2.4,7.7-2.6,13.8c-0.3,6.1-0.3,8-0.3,23.4s0.1,17.3,0.3,23.4c0.3,6,1.2,10.2,2.6,13.8c1.5,3.7,3.4,6.9,6.5,10
		s6.3,5.1,10,6.5c3.6,1.4,7.7,2.4,13.8,2.6c6,0.3,8,0.3,23.4,0.3s17.3-0.1,23.4-0.3c6-0.3,10.2-1.2,13.8-2.6c3.7-1.4,6.9-3.4,10-6.5
		s5.1-6.3,6.5-10c1.4-3.6,2.4-7.7,2.6-13.8c0.3-6,0.3-8,0.3-23.4s-0.1-17.3-0.3-23.4c-0.3-6-1.2-10.2-2.6-13.8
		c-1.4-3.7-3.4-6.9-6.5-10s-6.3-5.1-10-6.5c-3.6-1.4-7.7-2.4-13.8-2.6C107.3,33.8,105.4,33.8,90,33.8L90,33.8L90,33.8z M90,44
		c15.1,0,16.9,0.1,22.9,0.3c5.5,0.3,8.5,1.2,10.5,2c2.7,1,4.5,2.3,6.5,4.2s3.2,3.9,4.2,6.5c0.8,2,1.7,5,1.9,10.5
		c0.3,6,0.3,7.8,0.3,22.9s-0.1,16.9-0.3,22.9c-0.3,5.5-1.2,8.5-1.9,10.5c-1,2.7-2.3,4.5-4.2,6.5s-3.9,3.2-6.5,4.2
		c-2,0.8-5,1.7-10.5,1.9c-6,0.3-7.8,0.3-22.9,0.3s-16.9-0.1-22.9-0.3c-5.5-0.3-8.5-1.2-10.5-1.9c-2.7-1-4.5-2.3-6.5-4.2
		c-2-2-3.2-3.9-4.2-6.5c-0.8-2-1.7-5-2-10.5c-0.3-6-0.3-7.8-0.3-22.9s0.1-16.9,0.3-22.9c0.3-5.5,1.2-8.5,2-10.5
		c1-2.6,2.3-4.5,4.2-6.5c2-2,3.9-3.2,6.5-4.2c2-0.8,5-1.7,10.5-2C73.1,44,74.9,44,90,44"/>
	<path class="st1" d="M90,109.3c-10.4,0-18.9-8.5-18.9-18.9S79.6,71.6,90,71.6s18.9,8.5,18.9,18.9S100.4,109.3,90,109.3L90,109.3z
		 M90,61.3c-16.1,0-29.1,13-29.1,29.1s13,29.1,29.1,29.1s29.1-13,29.1-29.1S106.1,61.3,90,61.3L90,61.3z"/>
	<path class="st1" d="M127.1,60.2c0,3.8-3,6.8-6.8,6.8s-6.8-3-6.8-6.8s3-6.8,6.8-6.8C124,53.4,127.1,56.4,127.1,60.2L127.1,60.2z"/>
</g>
</svg>
