<?xml version="1.0" encoding="utf-8"?>
<!-- Generator: Adobe Illustrator 23.0.2, SVG Export Plug-In . SVG Version: 6.00 Build 0)  -->
<svg version="1.1" id="Capa_1" xmlns="http://www.w3.org/2000/svg" xmlns:xlink="http://www.w3.org/1999/xlink" x="0px" y="0px"
	 viewBox="0 0 180 180" style="enable-background:new 0 0 180 180;" xml:space="preserve">
<style type="text/css">
	.st0{fill:#ED9CC3;}
</style>
<g>
	<path class="st0" d="M89.7,0.5C40.1,0.5-0.2,40.7-0.2,90.4c0,38.1,23.7,70.7,57.1,83.8c-0.8-7.1-1.5-18.1,0.3-25.8
		c1.6-7,10.5-44.7,10.5-44.7s-2.7-5.4-2.7-13.3c0-12.5,7.3-21.8,16.3-21.8c7.7,0,11.4,5.8,11.4,12.7c0,7.7-4.9,19.2-7.5,30
		c-2.2,9,4.5,16.3,13.3,16.3c16,0,28.3-16.9,28.3-41.2c0-21.5-15.5-36.6-37.6-36.6c-25.6,0-40.6,19.2-40.6,39c0,7.7,3,16,6.7,20.5
		c0.7,0.9,0.8,1.7,0.6,2.6c-0.7,2.8-2.2,9-2.5,10.2c-0.4,1.6-1.3,2-3,1.2c-11.3-5.3-18.3-21.6-18.3-34.9c0-28.3,20.6-54.4,59.4-54.4
		c31.2,0,55.4,22.2,55.4,52c0,31-19.5,56-46.6,56c-9.1,0-17.7-4.7-20.6-10.4c0,0-4.5,17.2-5.6,21.4c-2,7.8-7.5,17.6-11.2,23.6
		c8.4,2.6,17.3,4,26.6,4c49.7,0,89.9-40.3,89.9-89.9C179.7,40.7,139.4,0.5,89.7,0.5L89.7,0.5z"/>
</g>
</svg>
