<?xml version="1.0" encoding="utf-8"?>
<!-- Generator: Adobe Illustrator 23.0.2, SVG Export Plug-In . SVG Version: 6.00 Build 0)  -->
<svg version="1.1" id="Capa_1" xmlns="http://www.w3.org/2000/svg" xmlns:xlink="http://www.w3.org/1999/xlink" x="0px" y="0px"
	 viewBox="0 0 180 180" style="enable-background:new 0 0 180 180;" xml:space="preserve">
<style type="text/css">
	.st0{fill:#ED9CC3;}
	.st1{fill:#DFDBDB;}
</style>
<path class="st0" d="M180.3,89.7c0,49.7-40.3,90-90,90s-90-40.3-90-90s40.3-90,90-90S180.3,40,180.3,89.7L180.3,89.7z"/>
<path class="st1" d="M78.3,107.7v-36l31.2,18L78.3,107.7L78.3,107.7z M147.7,60.8c-1.4-5.2-5.4-9.2-10.6-10.6
	c-9.4-2.5-46.9-2.5-46.9-2.5s-37.5,0-46.9,2.5c-5.2,1.4-9.2,5.5-10.6,10.6c-2.5,9.4-2.5,28.9-2.5,28.9s0,19.5,2.5,28.9
	c1.4,5.2,5.5,9.2,10.6,10.6c9.4,2.5,46.9,2.5,46.9,2.5s37.5,0,46.9-2.5c5.2-1.4,9.2-5.4,10.6-10.6c2.5-9.4,2.5-28.9,2.5-28.9
	S150.3,70.2,147.7,60.8L147.7,60.8z"/>
</svg>
